<?xml version="1.0" encoding="UTF-8"?>
<svg width="48px" height="47px" viewBox="0 0 48 47" version="1.1" xmlns="http://www.w3.org/2000/svg" xmlns:xlink="http://www.w3.org/1999/xlink">
    <!-- Generator: Sketch 49.3 (51167) - http://www.bohemiancoding.com/sketch -->
    <title>icon-designer</title>
    <desc>Created with Sketch.</desc>
    <defs></defs>
    <g id="Page-1" stroke="none" stroke-width="1" fill="none" fill-rule="evenodd">
        <g id="Desktop-HD" transform="translate(-339.000000, -2201.000000)" fill="#35FFC6" fill-rule="nonzero">
            <g id="Group-4" transform="translate(185.000000, 2129.000000)">
                <g id="icon-designer" transform="translate(154.000000, 72.000000)">
                    <path d="M39.929103,43.1677518 L44.132759,39.0509878 L45.39408,44.4033306 L39.929103,43.1677518 Z M25.624747,29.7141355 L24.033749,28.1556147 L19.259629,23.4789257 L17.668631,21.9203951 L7.81997,12.2727282 L12.592964,7.59603918 L22.441625,17.2437061 L24.033749,18.8022367 L28.806743,23.4789257 L30.397741,25.0374465 L42.82643,37.2124898 L38.053435,41.8891788 L25.624747,29.7141355 Z M9.853162,42.045698 L6.082699,43.6284735 L3.46329,41.0625208 L5.080167,37.3668049 L17.667506,25.0374465 L22.441625,29.7141355 L9.853162,42.045698 Z M3.039099,7.58942694 C2.607032,7.16506776 2.608157,6.46626612 3.04585,6.03640163 L6.227846,2.9193502 C6.67004,2.48728163 7.376651,2.48617469 7.813219,2.91273796 L11.001966,6.03640163 L6.227846,10.7130906 L3.039099,7.58942694 Z M37.394083,5.71455673 L42.168202,10.3901486 L30.397741,21.9203951 L25.624747,17.2425992 L37.394083,5.71455673 Z M43.363139,2.2051102 C43.366514,2.20290612 43.357513,2.20290612 43.366514,2.21173224 L45.74401,4.54070204 C45.750761,4.54731429 45.750761,4.54290612 45.750761,4.54401306 L42.566514,7.66217143 L40.180017,5.32437551 L43.363139,2.2051102 Z M46.009551,37.2124898 L31.989865,23.4789257 L41.342323,14.3173322 L42.218835,15.1770514 C42.658779,15.6080229 42.658779,16.3057176 42.216585,16.7388931 L37.801396,21.0628702 C37.362578,21.4938416 37.362578,22.1915363 37.801396,22.6214008 C38.24134,23.0523624 38.953576,23.0523624 39.392394,22.6214008 L43.807583,18.2985208 C45.128539,17.004529 45.129664,14.9103184 43.810958,13.6185306 L42.933322,12.7588016 L43.7592,11.9486792 L45.350199,10.3901486 L44.157512,9.22179918 L47.341759,6.10253388 C48.225022,5.23509551 48.216021,3.84521143 47.335008,2.98107429 L44.957512,0.652094694 C44.067498,-0.219751837 42.649777,-0.213139592 41.77214,0.646589388 L38.587894,3.7658449 L37.394083,2.59639837 L35.803084,4.15492898 L35.801959,4.15492898 L35.801959,4.15602612 L24.033749,15.6840784 L9.404217,1.35420735 C8.086636,0.0646138776 5.955554,0.0690220408 4.636848,1.36081959 L1.454852,4.47788082 C0.140647,5.76526041 0.132771,7.86056816 1.448101,9.14794776 L4.636848,12.2716212 L4.940646,12.5692212 L6.227846,13.8312588 L16.076508,23.4789257 L3.181996,36.1102824 L0.795499,41.5662367 L2.386497,43.1247576 L0,45.4625535 L1.590998,47.0210841 L3.977495,44.6832882 L5.569619,46.2418188 L11.139237,43.9040229 L24.033749,31.2726661 L36.461312,43.4477094 L38.05231,45.00624 L46.203082,46.8491363 C47.404769,47.1202873 48.169888,46.3818024 47.88972,45.1958204 L46.009551,37.2124898 Z" id="UX/UI"></path>
                </g>
            </g>
        </g>
    </g>
</svg>