<?xml version="1.0" encoding="UTF-8"?>
<svg width="81px" height="57px" viewBox="0 0 81 57" version="1.1" xmlns="http://www.w3.org/2000/svg" xmlns:xlink="http://www.w3.org/1999/xlink">
    <!-- Generator: Sketch 49.3 (51167) - http://www.bohemiancoding.com/sketch -->
    <title>noun_100511_cc</title>
    <desc>Created with Sketch.</desc>
    <defs></defs>
    <g id="Page-1" stroke="none" stroke-width="1" fill="none" fill-rule="evenodd">
        <g id="Desktop-HD" transform="translate(-662.000000, -2540.000000)" fill="#FFFFFF">
            <g id="noun_100511_cc" transform="translate(662.000000, 2540.000000)">
                <path d="M0,56.3 L0,0.6 L81,0.6 L81,56.3 L0,56.3 Z M78.5,3.2 L2.5,3.2 L2.5,53.8 L78.5,53.8 L78.5,3.2 Z M25.3,34.8 L7.6,47.5 L6.3,45 L24,32.3 L25.3,34.8 Z M10.1,14.6 L11.4,12.1 L41.1,32.2 L70.9,12.1 L72.2,14.6 L41.8,34.9 L40.5,34.9 L10.1,14.6 Z M75.9,43.7 L74.6,46.2 L56.9,34.8 L58.2,32.3 L75.9,43.7 Z" id="Shape"></path>
            </g>
        </g>
    </g>
</svg>