<?xml version="1.0" encoding="UTF-8"?>
<svg width="50px" height="48px" viewBox="0 0 50 48" version="1.1" xmlns="http://www.w3.org/2000/svg" xmlns:xlink="http://www.w3.org/1999/xlink">
    <!-- Generator: Sketch 49.3 (51167) - http://www.bohemiancoding.com/sketch -->
    <title>icon-frontend</title>
    <desc>Created with Sketch.</desc>
    <defs></defs>
    <g id="Page-1" stroke="none" stroke-width="1" fill="none" fill-rule="evenodd">
        <g id="Desktop-HD" transform="translate(-695.000000, -1297.000000)" fill="#4E6CE5" fill-rule="nonzero">
            <g id="Group-5" transform="translate(185.000000, 1225.000000)">
                <g id="Group-4">
                    <g id="icon-frontend" transform="translate(510.000000, 72.000000)">
                        <path d="M49.99881,3.6 C49.99881,3.6024 50,3.606 50,3.6084 L50,18 L50,44.3916 C50,46.3848 48.392857,48 46.42381,48 L3.57619,48 C1.60119,48 0,46.3884 0,44.3916 L0,18 L0,13.2 L0,3.6084 C0,3.606 0.00119,3.6024 0.00119,3.6 C0.004762,2.0364 1.002381,0.7188 2.380952,0.222 C2.755952,0.0864 3.154762,0 3.57619,0 L5.952381,0 L13.095238,0 L16.666667,0 L20.238095,0 L46.42381,0 C48.396429,0 49.994048,1.6068 49.99881,3.6 Z M47.619048,44.3916 L47.619048,18 L47.619048,12 L35.190476,12 L20.238095,12 L16.666667,12 L13.095238,12 L5.952381,12 L2.380952,12 L2.380952,13.2 L2.380952,18 L2.380952,44.3916 C2.380952,45.0624 2.914286,45.6 3.57619,45.6 L46.42381,45.6 C47.079762,45.6 47.619048,45.0576 47.619048,44.3916 Z M3.57619,2.4 C2.922619,2.4 2.386905,2.9388 2.382143,3.6 C2.382143,3.6024 2.380952,3.6048 2.380952,3.6084 L2.380952,9.6 L5.952381,9.6 L13.095238,9.6 L16.666667,9.6 L20.238095,9.6 L47.619048,9.6 L47.619048,3.6084 C47.619048,3.6048 47.617857,3.6024 47.617857,3.6 C47.613095,2.934 47.082143,2.4 46.42381,2.4 L20.238095,2.4 L16.666667,2.4 L13.095238,2.4 L5.952381,2.4 L3.57619,2.4 Z M5.952381,7.19976 C5.294048,7.19976 4.761905,6.66336 4.761905,5.99976 C4.761905,5.33616 5.294048,4.79976 5.952381,4.79976 C6.610714,4.79976 7.142857,5.33616 7.142857,5.99976 C7.142857,6.66336 6.610714,7.19976 5.952381,7.19976 Z M9.52381,7.19976 C8.865476,7.19976 8.333333,6.66336 8.333333,5.99976 C8.333333,5.33616 8.865476,4.79976 9.52381,4.79976 C10.182143,4.79976 10.714286,5.33616 10.714286,5.99976 C10.714286,6.66336 10.182143,7.19976 9.52381,7.19976 Z M13.095238,7.19976 C12.436905,7.19976 11.904762,6.66336 11.904762,5.99976 C11.904762,5.33616 12.436905,4.79976 13.095238,4.79976 C13.753571,4.79976 14.285714,5.33616 14.285714,5.99976 C14.285714,6.66336 13.753571,7.19976 13.095238,7.19976 Z M35.365476,20.75136 L41.252381,26.68416 C41.717857,27.15336 41.717857,27.91296 41.252381,28.38096 L35.365476,34.31616 C35.313095,34.36896 35.247619,34.39296 35.190476,34.43256 C34.72619,34.75776 34.095238,34.73136 33.682143,34.31616 C33.216667,33.84696 33.216667,33.08616 33.682143,32.61936 L35.190476,31.09896 L38.72619,27.53256 L35.190476,23.96856 L33.682143,22.44816 C33.216667,21.97896 33.216667,21.22056 33.682143,20.75136 C34.095238,20.33376 34.72619,20.31096 35.190476,20.63376 C35.247619,20.67456 35.313095,20.69976 35.365476,20.75136 Z M28.480714,16.88184 C28.950952,17.06664 29.230714,17.52024 29.230714,18.00024 C29.230714,18.14544 29.210476,18.29304 29.154524,18.43704 L27.380714,23.00664 L22.750952,34.93344 L21.347381,38.55264 C21.108095,39.16824 20.417619,39.47304 19.804524,39.23184 C19.191429,38.99064 18.889048,38.29464 19.129524,37.67784 L22.750952,28.34664 L26.76881,18.00024 L26.937857,17.56224 C27.027143,17.33184 27.192619,17.16264 27.380714,17.03184 C27.69619,16.81224 28.097381,16.73064 28.480714,16.88184 Z M16.450476,22.44816 L13.095714,25.82976 L11.405238,27.53256 L13.095714,29.23656 L16.450476,32.61936 C16.915952,33.08616 16.915952,33.84696 16.450476,34.31616 C15.985,34.78416 15.232619,34.78416 14.767143,34.31616 L13.095714,32.63016 L8.880238,28.38096 C8.414762,27.91296 8.414762,27.15336 8.880238,26.68416 L13.095714,22.43616 L14.767143,20.75136 C15.232619,20.28216 15.985,20.28216 16.450476,20.75136 C16.915952,21.22056 16.915952,21.97896 16.450476,22.44816 Z" id="FRONT-END"></path>
                    </g>
                </g>
            </g>
        </g>
    </g>
</svg>