<?xml version="1.0" encoding="UTF-8"?>
<svg width="60px" height="65px" viewBox="0 0 60 65" version="1.1" xmlns="http://www.w3.org/2000/svg" xmlns:xlink="http://www.w3.org/1999/xlink">
    <!-- Generator: Sketch 49.3 (51167) - http://www.bohemiancoding.com/sketch -->
    <title>noun_1007316_cc</title>
    <desc>Created with Sketch.</desc>
    <defs></defs>
    <g id="Page-1" stroke="none" stroke-width="1" fill="none" fill-rule="evenodd">
        <g id="Desktop-HD" transform="translate(-689.000000, -692.000000)" fill="#27ABFA" fill-rule="nonzero">
            <g id="Group-2" transform="translate(185.000000, 663.000000)">
                <g id="Качество" transform="translate(367.000000, 0.000000)">
                    <g id="noun_1007316_cc" transform="translate(137.000000, 29.000000)">
                        <path d="M59.8592558,54.9836512 L48.8691163,37.1044186 L53.0037209,34.9270698 C53.3193488,34.7607907 53.4717209,34.3931628 53.3656047,34.0524419 L51.895093,29.3143953 L55.0667907,25.4993488 C55.2953488,25.2251395 55.2953488,24.8269767 55.0667907,24.5527674 L51.895093,20.7377209 L53.3656047,15.9996744 C53.4714186,15.6589535 53.3193488,15.2913256 53.0037209,15.1250465 L48.6139535,12.8128605 L48.1565349,7.87406977 C48.1238837,7.51913953 47.8424186,7.23797674 47.4874884,7.20532558 L42.5477907,6.74851163 L40.2365116,2.35995349 C40.0702326,2.04493023 39.702907,1.89255814 39.362186,1.99776744 L34.6241395,3.46555814 L30.8087907,0.29627907 C30.5345814,0.068627907 30.1367209,0.068627907 29.862814,0.29627907 L26.0465581,3.46555814 L21.308814,1.99776744 C20.9683953,1.89225581 20.6007674,2.04462791 20.4347907,2.35995349 L18.1232093,6.74851163 L13.1850233,7.20532558 C12.830093,7.23827907 12.5489302,7.51944186 12.5159767,7.87406977 L12.0585581,12.8128605 L7.66848837,15.1250465 C7.35286047,15.2910233 7.2007907,15.6586512 7.30660465,15.9993721 L8.7762093,20.7377209 L5.60783721,24.5530698 C5.37988372,24.8272791 5.37988372,25.2248372 5.60783721,25.4990465 L8.7762093,29.3143953 L7.30660465,34.0527442 C7.2007907,34.3931628 7.35286047,34.7607907 7.66848837,34.9270698 L11.3444651,36.8628605 L0.26,54.9851628 C0.111860465,55.2276279 0.115186047,55.5335814 0.269069767,55.7724186 C0.422953488,56.0115581 0.69927907,56.1409535 0.981953488,56.106186 L11.569093,54.8001395 L14.3480698,64.4035116 C14.429093,64.6840698 14.6679302,64.8908605 14.9572558,64.9307674 C14.9914186,64.9356047 15.0255814,64.9377209 15.0591395,64.9377209 C15.312186,64.9377209 15.5510233,64.8077209 15.6873721,64.5888372 L26.611907,47.0569767 L29.861907,49.7561395 C29.9988605,49.869814 30.1672558,49.9266512 30.3347442,49.9266512 C30.5028372,49.9266512 30.6706279,49.869814 30.8078837,49.7561395 L33.579907,47.4536279 L44.4364186,64.5933721 C44.5736744,64.8098372 44.8106977,64.9377209 45.0616279,64.9377209 C45.096093,64.9377209 45.1311628,64.9353023 45.1662326,64.9304651 C45.4543488,64.8893488 45.6919767,64.6831628 45.773,64.4035116 L48.5528837,54.8001395 L59.1373023,56.106186 C59.4196744,56.1409535 59.6966047,56.0109535 59.8504884,55.771814 C60.0052791,55.5323721 60.0083023,55.225814 59.8592558,54.9836512 Z M15.3094651,62.3966744 L12.817093,53.781907 C12.715814,53.4324186 12.3753953,53.2083953 12.0153256,53.2528372 L2.32427907,54.4488372 L12.1631628,38.3626977 L12.5162791,42.1783488 C12.5492326,42.5332791 12.8303953,42.8144419 13.1853256,42.847093 L18.1235116,43.303 L20.435093,47.6921628 C20.6010698,48.0077907 20.9686977,48.1595581 21.3091163,48.0543488 L24.9494186,46.9263721 L15.3094651,62.3966744 Z M30.3356512,48.2239535 L26.6838605,45.1907209 C26.5493256,45.0791628 26.3815349,45.0202093 26.2113256,45.0202093 C26.1378605,45.0202093 26.064093,45.031093 25.9918372,45.0534651 L21.4584651,46.4580698 L19.2469535,42.2578605 C19.1299535,42.0362558 18.9092558,41.8887209 18.6598372,41.8657442 L13.934186,41.4294884 L13.4967209,36.7026279 C13.4737442,36.4532093 13.3265116,36.2325116 13.1046047,36.115814 L8.90348837,33.9036977 L10.309907,29.3694186 C10.3842791,29.1302791 10.3322791,28.8696744 10.1723488,28.677093 L7.14032558,25.025907 L10.1723488,21.3747209 C10.3322791,21.1821395 10.3842791,20.9215349 10.309907,20.6823953 L8.90348837,16.1481163 L13.1046047,13.9356977 C13.3262093,13.819 13.4737442,13.5983023 13.4967209,13.349186 L13.934186,8.62293023 L18.6598372,8.18576744 C18.9092558,8.1627907 19.1302558,8.01525581 19.2469535,7.79365116 L21.4584651,3.59404651 L25.9918372,4.99865116 C26.2309767,5.07302326 26.4912791,5.02102326 26.6838605,4.86109302 L30.3356512,1.82816279 L33.9877442,4.86109302 C34.1800233,5.02102326 34.4403256,5.07272093 34.6794651,4.99895349 L39.2137442,3.59434884 L41.4252558,7.79395349 C41.5419535,8.01555814 41.7626512,8.16309302 42.0120698,8.18606977 L46.7392326,8.62353488 L47.1763953,13.3497907 C47.1996744,13.5992093 47.3472093,13.819907 47.568814,13.9363023 L51.7690233,16.1484186 L50.362,20.6826977 C50.2879302,20.9221395 50.3396279,21.1827442 50.4998605,21.3753256 L53.5352093,25.0262093 L50.4998605,28.677093 C50.3396279,28.8699767 50.2879302,29.1305814 50.362,29.3700233 L51.7690233,33.9043023 L47.568814,36.1164186 C47.3475116,36.2331163 47.1996744,36.453814 47.1763953,36.7032326 L46.7392326,41.430093 L42.0120698,41.8663488 C41.7626512,41.8893256 41.5416512,42.0368605 41.4252558,42.2584651 L39.2137442,46.4586744 L34.6794651,45.0540698 C34.4406279,44.9796977 34.1800233,45.0313953 33.9877442,45.1916279 L30.3356512,48.2239535 Z M48.1087674,53.2531395 C47.748093,53.209 47.4082791,53.4327209 47.3073023,53.781907 L44.8088837,62.4126977 L34.8230698,46.6479302 L39.363093,48.0546512 C39.7035116,48.1601628 40.0711395,48.0077907 40.2374186,47.6924651 L42.5486977,43.3033023 L47.488093,42.8473953 C47.8433256,42.8147442 48.1244884,42.5335814 48.1574419,42.1786512 L48.4313488,39.2185814 L57.7931628,54.4482326 L48.1087674,53.2531395 Z" id="Shape"></path>
                        <path d="M55.1085116,20.0744186 C55.0398837,20.0744186 54.9709535,20.0650465 54.9014186,20.0447907 C54.5093023,19.930814 54.2831628,19.5202558 54.3971395,19.1275349 L55.8894186,13.9886047 L50.9055814,11.5518605 C50.6806512,11.441814 50.5267674,11.2256512 50.4962326,10.9774419 L49.7936279,5.28344186 L44.6102558,4.7722093 C44.2033256,4.732 43.9061395,4.36951163 43.9463488,3.96288372 C43.9862558,3.55625581 44.3469302,3.25876744 44.7559767,3.29897674 L50.5285814,3.86855814 C50.8732326,3.90272093 51.1483488,4.17088372 51.1903721,4.51462791 L51.9165581,10.3984884 L57.0993256,12.9325814 C57.4225116,13.0906977 57.5854651,13.4583256 57.485093,13.8038837 L55.8192791,19.540814 C55.7252558,19.864 55.4295814,20.0744186 55.1085116,20.0744186 Z" id="Shape"></path>
                        <path d="M30.3356512,41.9948372 C20.9795814,41.9948372 13.3676279,34.3825814 13.3676279,25.0262093 C13.3676279,15.6698372 20.9795814,8.05788372 30.3356512,8.05788372 C39.6917209,8.05788372 47.3036744,15.6698372 47.3036744,25.0262093 C47.3036744,34.3825814 39.6917209,41.9948372 30.3356512,41.9948372 Z M30.3356512,9.53806977 C21.7961628,9.53806977 14.8481163,16.485814 14.8481163,25.025907 C14.8481163,33.5663023 21.7958605,40.5140465 30.3356512,40.5140465 C38.8754419,40.5140465 45.8234884,33.566 45.8234884,25.025907 C45.823186,16.485814 38.8754419,9.53806977 30.3356512,9.53806977 Z" id="Shape"></path>
                        <path d="M28.1713023,33.8405116 C27.780093,33.8405116 27.403093,33.6851163 27.1249535,33.4069767 L21.9748372,28.2586744 C21.3964884,27.6806279 21.396186,26.7431163 21.9745349,26.1647674 C22.5522791,25.5867209 23.4897907,25.5864186 24.0681395,26.1644651 L28.0570233,30.1518372 L36.9647442,19.175 C37.4796047,18.539814 38.4119767,18.4430698 39.0474651,18.9585349 C39.6823488,19.4736977 39.779093,20.4060698 39.2639302,21.0409535 L29.3210465,33.293 C29.0571163,33.6186047 28.6674186,33.8169302 28.2483953,33.8386977 C28.2226977,33.839907 28.1973023,33.8405116 28.1713023,33.8405116 Z" id="Shape"></path>
                    </g>
                </g>
            </g>
        </g>
    </g>
</svg>