<?xml version="1.0" standalone="no"?>
<!DOCTYPE svg PUBLIC "-//W3C//DTD SVG 20010904//EN"
 "http://www.w3.org/TR/2001/REC-SVG-20010904/DTD/svg10.dtd">
<svg version="1.0" xmlns="http://www.w3.org/2000/svg"
 width="1024.000000pt" height="1024.000000pt" viewBox="0 0 1024.000000 1024.000000"
 preserveAspectRatio="xMidYMid meet">
<metadata>
Created by potrace 1.11, written by Peter Selinger 2001-2013
</metadata>
<g transform="translate(0.000000,1024.000000) scale(0.100000,-0.100000)"
fill="#000000" stroke="none">
<path d="M643 6185 l0 -887 421 5 c446 4 479 8 641 62 310 104 526 350 576
655 14 83 13 266 0 350 -55 343 -283 574 -649 659 -140 33 -149 33 -578 38
l-411 5 0 -887z m781 506 c185 -31 309 -116 376 -256 39 -82 45 -117 44 -255
-1 -167 -36 -262 -131 -358 -55 -55 -163 -113 -233 -126 -19 -3 -46 -9 -60
-12 -14 -3 -100 -8 -192 -11 l-168 -5 0 514 c0 283 2 517 5 520 9 9 289 0 359
-11z"/>
<path d="M2583 6185 l0 -885 209 0 c191 0 208 1 209 18 0 9 1 168 1 352 l1
335 69 -1 c39 -1 73 -6 78 -10 4 -5 22 -36 40 -69 18 -33 45 -82 60 -110 30
-56 78 -144 135 -250 57 -106 95 -176 122 -222 l25 -43 249 0 249 0 -126 207
c-69 114 -173 283 -230 376 -57 94 -103 171 -102 172 2 1 33 16 70 33 160 73
250 183 284 347 7 32 7 177 0 213 -35 180 -160 314 -352 376 -113 37 -209 44
-605 45 l-386 2 0 -886z m776 525 c61 -16 106 -48 132 -93 29 -53 24 -149 -11
-200 -51 -74 -124 -97 -327 -103 l-153 -4 0 208 0 208 158 -2 c86 -1 177 -7
201 -14z"/>
<path d="M4232 6185 l0 -885 617 0 618 0 -1 182 -1 183 -407 0 c-225 0 -409 2
-409 5 -1 3 -2 85 -3 183 l-1 177 35 1 c19 0 185 0 368 0 l332 0 -2 172 -3
172 -360 1 c-198 1 -362 2 -365 3 -4 1 -5 295 -1 322 1 4 173 7 382 8 210 0
384 3 387 5 3 4 6 289 3 344 -1 9 -127 12 -595 12 l-595 0 1 -885z"/>
<path d="M6171 6817 c-57 -138 -114 -274 -126 -302 -13 -27 -62 -144 -110
-260 -91 -220 -103 -248 -128 -305 -9 -19 -21 -48 -27 -64 -11 -29 -131 -316
-155 -371 -28 -64 -85 -204 -85 -210 0 -3 104 -4 231 -3 l231 3 39 105 c22 58
51 135 65 171 l25 67 342 -2 342 -1 69 -172 68 -173 238 0 238 0 -80 193 c-43
105 -85 206 -93 222 -7 17 -29 71 -49 120 -20 50 -41 99 -46 110 -5 11 -38 90
-73 175 -302 732 -379 917 -386 930 -7 12 -43 15 -217 17 l-209 3 -104 -253z
m358 -362 c49 -138 100 -277 140 -385 l28 -75 -108 -3 c-59 -1 -159 -1 -222 0
l-113 3 41 110 c23 61 65 175 94 255 29 80 59 159 67 177 8 17 14 37 14 44 0
28 18 -11 59 -126z"/>
<path d="M7572 6185 l0 -885 202 0 201 0 -1 163 c-3 248 -6 1071 -4 1082 0 6
12 -19 24 -55 13 -36 42 -117 65 -180 22 -63 112 -315 200 -560 l159 -445 152
0 151 0 35 90 c18 50 34 94 34 98 0 5 6 23 14 40 16 36 28 67 32 82 2 9 120
329 265 720 32 88 59 165 59 171 0 6 6 18 13 29 12 15 13 -31 11 -296 -2 -281
-5 -894 -4 -926 0 -10 48 -13 208 -13 l207 0 0 885 0 885 -309 -2 -309 -3 -41
-120 c-23 -66 -109 -319 -192 -562 -82 -244 -153 -442 -157 -440 -9 3 -20 34
-107 282 -21 61 -84 238 -140 395 -56 157 -114 321 -129 365 l-28 80 -306 3
-305 2 0 -885z"/>
<path d="M2475 4709 c-301 -28 -522 -189 -575 -419 -31 -131 -9 -287 55 -384
84 -130 167 -180 464 -281 157 -54 179 -65 231 -111 65 -59 72 -149 17 -228
-11 -15 -43 -39 -71 -52 -44 -20 -63 -23 -146 -21 -78 2 -106 8 -160 31 -72
32 -129 68 -179 116 l-33 32 -141 -140 c-160 -160 -154 -136 -57 -213 60 -47
110 -75 198 -110 64 -25 95 -35 187 -55 36 -8 139 -17 195 -18 57 0 179 12
190 19 4 2 21 7 39 10 48 8 147 50 200 84 102 66 186 175 222 290 25 78 32
236 14 296 -6 22 -12 42 -13 45 -9 46 -55 115 -113 172 -81 78 -157 117 -380
194 -228 79 -280 110 -297 178 -27 103 50 197 174 211 33 4 60 8 62 10 1 1 33
-4 69 -12 86 -18 159 -53 211 -103 l41 -39 129 137 c72 75 131 142 133 147 5
16 -89 83 -176 125 -155 76 -316 105 -490 89z"/>
<path d="M7715 4709 c-184 -18 -339 -82 -438 -182 -105 -105 -151 -219 -150
-373 1 -138 41 -237 134 -331 68 -68 165 -118 369 -188 180 -62 234 -89 274
-135 70 -84 43 -209 -57 -263 -36 -19 -57 -22 -147 -22 -93 1 -113 4 -170 29
-74 32 -134 71 -180 117 l-32 32 -141 -141 -141 -141 35 -32 c53 -50 160 -116
241 -148 64 -26 97 -36 193 -57 38 -8 140 -18 195 -18 326 0 574 155 652 409
18 55 22 93 21 180 -1 128 -17 181 -80 266 -76 103 -178 165 -388 239 -258 89
-298 109 -330 162 -21 36 -21 106 -1 146 37 71 113 102 240 99 70 -2 91 -7
156 -38 41 -20 92 -52 112 -72 l36 -36 130 137 c72 75 133 140 137 144 11 11
-113 98 -191 134 -149 70 -316 99 -479 83z"/>
<path d="M3423 3785 l0 -885 214 0 213 0 1 468 c0 633 0 1186 0 1250 l-1 52
-214 0 -214 0 1 -885z"/>
<path d="M4044 4488 l1 -183 242 0 c133 0 245 -3 249 -7 4 -5 7 -321 7 -703
l-1 -695 214 0 214 0 2 703 3 702 248 0 247 0 0 182 0 183 -714 0 -714 0 2
-182z"/>
<path d="M5672 3785 l0 -885 618 0 618 0 -1 183 -2 182 -407 0 c-225 0 -409 2
-409 5 -1 3 -2 85 -3 183 l-1 177 35 0 c19 1 185 1 368 1 l332 0 -2 172 -3
172 -365 0 -365 0 0 165 0 165 360 2 c198 1 374 2 390 2 l30 1 0 180 0 180
-597 0 -597 0 1 -885z"/>
</g>
</svg>
