<?xml version="1.0" encoding="UTF-8"?>
<svg width="67px" height="65px" viewBox="0 0 67 65" version="1.1" xmlns="http://www.w3.org/2000/svg" xmlns:xlink="http://www.w3.org/1999/xlink">
    <!-- Generator: Sketch 49.3 (51167) - http://www.bohemiancoding.com/sketch -->
    <title>noun_139387_cc</title>
    <desc>Created with Sketch.</desc>
    <defs></defs>
    <g id="Page-1" stroke="none" stroke-width="1" fill="none" fill-rule="evenodd">
        <g id="Desktop-HD" transform="translate(-1053.000000, -692.000000)" fill="#5300E6" fill-rule="nonzero">
            <g id="Group-2" transform="translate(185.000000, 663.000000)">
                <g id="Скорость" transform="translate(734.000000, 0.000000)">
                    <g id="noun_139387_cc" transform="translate(134.000000, 29.000000)">
                        <g id="Group">
                            <path d="M65.2007353,62.1488636 C65.0992647,57.7761364 62.9029412,56.8986364 59.1617647,56.8986364 C56.075,56.8986364 53.6779412,55.5698295 52.4102941,53.1581818 C50.8757353,50.2331818 55.1705882,43.9688068 57.2352941,40.9566477 C57.4191176,40.6885227 57.5816176,40.4499432 57.7323529,40.2283523 L57.7426471,40.2357386 C58.1191176,40.5134659 58.5625,40.6597159 59.0279412,40.6597159 C59.7213235,40.6597159 60.3808824,40.3228977 60.7889706,39.7600568 L64.3257353,34.9086932 C64.6698529,34.4367045 64.8095588,33.8576136 64.7198529,33.2792614 C64.6308824,32.7009091 64.3213235,32.1919886 63.8514706,31.8470455 L53.5073529,24.2457386 C53.1301471,23.9694886 52.6852941,23.8232386 52.2205882,23.8232386 C51.5272059,23.8232386 50.8691176,24.1593182 50.4610294,24.7206818 L46.9264706,29.575 C46.3360294,30.3845455 46.3911765,31.4673864 46.9845588,32.2230114 L45.2580882,34.4802841 C43.4507353,33.0325568 43.1926471,31.9903409 44.0779412,30.0425568 C44.9764706,28.0644886 46.3316176,24.3469318 45.3139706,21.6715909 C44.4073529,19.2865341 42.9242647,18.5678409 41.0455882,17.6571023 C39.6316176,16.9709091 38.0279412,16.1946023 36.2360294,14.4883523 C33.2801471,11.6771023 31.9007353,9.11772727 30.6830882,6.85897727 C30.1904412,5.94454545 29.7242647,5.08034091 29.2,4.298125 C27.5536765,1.83920455 26.3279412,0.514829545 25.4558824,0.249659091 C25.3735294,0.223806818 25.2911765,0.234147727 25.2176471,0.264431818 C25.2073529,0.268863636 25.1955882,0.269602273 25.1852941,0.274772727 C25.1639706,0.285852273 25.1463235,0.303579545 25.1279412,0.319090909 C25.1102941,0.333863636 25.0911765,0.344204545 25.0764706,0.361931818 C25.0625,0.378181818 25.0536765,0.399602273 25.0433824,0.418806818 C25.0316176,0.438011364 25.0161765,0.455 25.0088235,0.477897727 C25.0073529,0.480852273 25.0066176,0.486022727 25.0058824,0.489715909 C25.0051471,0.491931818 25.0036765,0.492670455 25.0029412,0.494886364 C25.0029412,0.498579545 25.0029412,0.500795455 25.0029412,0.504488636 C24.6352941,1.61613636 25.3286765,5.25761364 27.5110294,9.49073864 C26.6088235,8.653125 25.8919118,8.18704545 25.3514706,8.09323864 C25.1573529,8.05704545 24.9757353,8.18335227 24.9330882,8.37392045 C24.7022059,9.41170455 25.6051471,12.3403977 27.8720588,15.7691477 C26.5389706,14.9189773 25.6661765,14.7623864 25.2801471,14.7431818 C25.0977941,14.7564773 24.9198529,14.8798295 24.9,15.0733523 C24.8,16.0993182 25.9051471,18.3499432 28.1661765,20.9669318 C26.9205882,20.4690909 25.9367647,20.4388068 25.2316176,20.4890341 C25.0382353,20.5038068 24.8897059,20.6677841 24.8941176,20.8635227 C24.9183824,21.8636364 26.1397059,23.66 28.3235294,25.6919886 C26.9779412,25.3027273 25.9154412,25.3315341 25.1882353,25.4755682 C25.0838235,25.49625 24.9933824,25.5619886 24.9419118,25.6550568 C24.8897059,25.7473864 24.8808824,25.8581818 24.9161765,25.959375 C25.7139706,28.1715909 29.8308824,31.5124432 38.9713235,34.2845455 C39.1669118,35.0948295 39.5088235,35.8689205 40.1389706,36.4517045 C40.8330882,37.0943182 41.7948529,37.4207955 42.9955882,37.4444318 L34.2882353,48.8260795 C33.9323529,48.5623864 33.5323529,48.4153977 33.1147059,48.4153977 C32.2808824,48.4153977 31.4602941,48.9900568 31.1205882,49.814375 C30.7955882,50.5995455 30.9720588,51.4430682 31.6036765,52.0790341 L39.2772059,59.1891477 C39.4198529,59.3221023 39.6404412,59.3169318 39.7786765,59.1810227 C40.275,58.6920455 40.6867647,58.4638068 41.075,58.4638068 C41.5352941,58.4638068 42.0727941,58.7858523 42.7676471,59.4757386 C46.3455882,63.03375 50.9617647,64.764375 56.8779412,64.764375 L64.8470588,64.764375 C65.5808824,64.764375 66.1772059,64.1653409 66.1772059,63.4296591 C66.1764706,62.8180682 65.7617647,62.3054545 65.2007353,62.1488636 Z M64.4720588,62.0934659 L56.9566176,62.0934659 C56.4985294,61.36 56.5595588,60.3613636 56.6470588,59.8088636 C56.8191176,58.7164205 57.275,57.8485227 57.6529412,57.5109659 C58.1389706,57.5811364 58.6375,57.6284091 59.1610294,57.6284091 C62.6544118,57.6291477 64.3691176,58.3168182 64.4720588,62.0934659 Z M54.2007353,44.2598295 L51.7257353,42.4486932 L52.8220588,40.9374432 L55.1970588,42.6769318 C54.8669118,43.1821591 54.5308824,43.7139773 54.2007353,44.2598295 Z M45.3963235,35.5003409 L48.0463235,37.4407386 L46.9507353,38.95125 L44.2625,36.9820455 L45.3963235,35.5003409 Z M53.3522059,38.9630682 L52.6617647,39.9159091 L52.2330882,40.5075568 L51.9301471,40.9248864 L50.4257353,39.8235795 L50.7286765,39.4055114 L51.1573529,38.8138636 L51.8477941,37.8625 L53.3522059,38.9630682 Z M50.5683824,38.3839773 L50.1397059,38.9748864 L49.8360294,39.3922159 L48.3308824,38.2901705 L48.6338235,37.8721023 L49.0625,37.2811932 L49.7522059,36.3290909 L51.2588235,37.4311364 L50.5683824,38.3839773 Z M47.1801471,40.0244886 C47.25,39.8420455 47.3345588,39.6647727 47.4522059,39.5030114 L47.5397059,39.3826136 L47.9036765,38.8810795 L49.4088235,39.983125 L49.0441176,40.4846591 L48.6154412,41.0755682 L47.6654412,42.3836932 C47.3411765,42.0527841 47.1235294,41.6332386 47.0514706,41.1664205 C46.9904412,40.7734659 47.0419118,40.3842045 47.1801471,40.0244886 Z M49.2036765,41.5061932 L49.6323529,40.9152841 L49.9955882,40.41375 L51.5,41.5157955 L51.1367647,42.0165909 L51.0507353,42.1355114 C50.9338235,42.2972727 50.7919118,42.4346591 50.6397059,42.5572727 C50.2477941,42.8719318 49.7602941,43.0558523 49.2485294,43.0558523 C48.8977941,43.0558523 48.5595588,42.9738636 48.2514706,42.8172727 L49.2036765,41.5061932 Z M47.5139706,30.0071023 L51.0492647,25.1520455 C51.3213235,24.7775568 51.7588235,24.5544886 52.2205882,24.5544886 C52.5301471,24.5544886 52.8264706,24.6527273 53.0786765,24.8366477 L54.6375,25.9822727 L53.5669118,27.4506818 C53.4477941,27.6139205 53.4830882,27.8421591 53.6448529,27.9610795 C53.7102941,28.0090909 53.7852941,28.0319886 53.8602941,28.0319886 C53.9720588,28.0319886 54.0823529,27.9802841 54.1536765,27.8827841 L55.2242647,26.4136364 L57.9551471,28.4205114 L55.5992647,31.655 C55.4808824,31.8182386 55.5161765,32.0472159 55.6779412,32.1661364 C55.7433824,32.2134091 55.8176471,32.2370455 55.8926471,32.2370455 C56.0044118,32.2370455 56.1147059,32.1853409 56.1867647,32.0878409 L58.5426471,28.8533523 L61.275,30.8609659 L60.2036765,32.3301136 C60.0845588,32.4933523 60.1198529,32.7223295 60.2816176,32.8405114 C60.3470588,32.8885227 60.4213235,32.9121591 60.4963235,32.9121591 C60.6080882,32.9121591 60.7183824,32.8604545 60.7897059,32.7629545 L61.8617647,31.2923295 L63.4191176,32.4372159 C63.7323529,32.6669318 63.9382353,33.0059659 63.9977941,33.3915341 C64.0573529,33.7763636 63.9639706,34.1626705 63.7352941,34.4773295 L60.1985294,39.3279545 C59.7433824,39.9557955 58.7955882,40.1079545 58.1698529,39.6455682 L47.8286765,32.0479545 C47.1823529,31.5700568 47.0411765,30.6548864 47.5139706,30.0071023 Z M47.5176471,32.7252841 L57.1433824,39.7947727 C56.9904412,40.0222727 56.8242647,40.2660227 56.6352941,40.5415341 C56.3205882,41.0009659 55.9683824,41.5157955 55.6,42.0675568 L53.25,40.3465341 L54.1544118,39.0989773 C54.2727941,38.9357386 54.2375,38.7075 54.075,38.5885795 L49.8889706,35.5232386 C49.8110294,35.465625 49.7117647,35.44125 49.6176471,35.4575 C49.5220588,35.4730114 49.4367647,35.5254545 49.3801471,35.6030114 L48.475,36.8505682 L45.8397059,34.9205114 L47.5176471,32.7252841 Z M40.6301471,35.9125 C39.4397059,34.8119318 39.4426471,32.7208523 39.4433824,31.3366477 L39.4433824,31.1896591 C39.4433824,30.9880114 39.2808824,30.8240341 39.0794118,30.8240341 C38.8779412,30.8240341 38.7154412,30.9880114 38.7154412,31.1896591 L38.7154412,31.3359091 C38.7154412,31.9571023 38.7198529,32.7082955 38.8176471,33.4705682 C30.7669118,30.980625 26.8595588,28.1339205 25.7852941,26.1263068 C26.7595588,26.0347159 28.1889706,26.1920455 30.0419118,27.1855114 C30.0492647,27.1892045 30.0566176,27.1884659 30.0647059,27.1921591 C32.0522059,28.7853977 34.5536765,30.43625 37.4742647,31.9031818 C37.5264706,31.9290341 37.5816176,31.9415909 37.6367647,31.9415909 C37.7698529,31.9415909 37.8985294,31.8677273 37.9625,31.7399432 C38.0522059,31.5597159 37.9786765,31.3396023 37.7992647,31.2494886 C30.5294118,27.5984091 26.275,23.0092614 25.6889706,21.2018182 C25.7029412,21.2018182 25.7154412,21.2018182 25.7286765,21.2018182 C26.6639706,21.2018182 27.9970588,21.4374432 29.7419118,22.6628409 C31.7492647,24.659375 34.375,26.7585795 37.6058824,28.6280682 C37.6625,28.6613068 37.7257353,28.6760795 37.7867647,28.6760795 C37.9125,28.6760795 38.0352941,28.6103409 38.1029412,28.4928977 C38.2029412,28.3185795 38.1433824,28.0947727 37.9691176,27.9935795 C30.1875,23.4901136 26.0639706,17.5972727 25.6529412,15.5386932 C26.2977941,15.6930682 27.5507353,16.2071591 29.3882353,17.8698295 C31.4213235,20.4461932 34.1882353,23.1392614 37.7779412,25.4297727 C37.8389706,25.4689205 37.9058824,25.4866477 37.9720588,25.4866477 C38.0933824,25.4866477 38.2110294,25.4275568 38.2794118,25.3175 C38.3875,25.1476136 38.3375,24.9215909 38.1676471,24.8130114 C29.6220588,19.3581818 25.7448529,11.4281818 25.6161765,8.95744318 C26.1786765,9.24698864 27.2044118,10.0425 29.0080882,12.1328409 C29.0205882,12.146875 29.0367647,12.1535227 29.05,12.1653409 C31.1183824,15.3939205 34.0382353,18.7266477 37.9845588,21.3946023 C38.0463235,21.4367045 38.1169118,21.4566477 38.1867647,21.4566477 C38.3044118,21.4566477 38.4183824,21.4005114 38.4889706,21.295625 C38.6014706,21.1272159 38.5573529,20.9004545 38.3904412,20.7874432 C34.4536765,18.1253977 31.6191176,14.8953409 29.6323529,11.8034091 C29.6191176,11.7494886 29.5970588,11.6977841 29.5588235,11.6534659 C29.5286765,11.61875 29.5022059,11.5906818 29.4727941,11.5559659 C26.5713235,6.94539773 25.5610294,2.68789773 25.6264706,1.14931818 C25.6279412,1.15005682 25.6286765,1.15079545 25.6301471,1.15227273 C25.6911765,1.19363636 25.7580882,1.24460227 25.8294118,1.30295455 C25.8397059,1.31107955 25.85,1.31920455 25.8602941,1.32806818 C25.9301471,1.38494318 26.0044118,1.44994318 26.0838235,1.52454545 C26.0897059,1.53045455 26.0955882,1.535625 26.1007353,1.54079545 C26.1852941,1.61982955 26.2764706,1.71068182 26.3727941,1.81113636 C26.3889706,1.82738636 26.4058824,1.84585227 26.4220588,1.86284091 C26.5161765,1.96329545 26.6161765,2.07113636 26.7220588,2.19301136 C26.7279412,2.19965909 26.7330882,2.20556818 26.7389706,2.21147727 C26.8485294,2.33852273 26.9669118,2.48034091 27.0897059,2.6325 C27.1147059,2.66278409 27.1404412,2.69528409 27.1647059,2.72630682 C27.2867647,2.87920455 27.4132353,3.04170455 27.5485294,3.22119318 C27.5536765,3.22931818 27.5588235,3.23596591 27.5654412,3.24261364 C27.7029412,3.42653409 27.85,3.62965909 28.0007353,3.843125 C28.0352941,3.89113636 28.0713235,3.94210227 28.1066176,3.99232955 C28.2632353,4.21539773 28.425,4.44880682 28.5963235,4.704375 C29.1007353,5.45778409 29.5580882,6.30647727 30.0426471,7.20613636 C31.225,9.39840909 32.6955882,12.1269318 35.7360294,15.0186932 C37.6102941,16.8017614 39.3389706,17.6408523 40.7286765,18.3144886 C42.5294118,19.1875568 43.8294118,19.8176136 44.6338235,21.9308523 C45.5911765,24.4473864 44.1014706,28.2284659 43.4161765,29.7367614 C42.3838235,32.0065909 42.7338235,33.3863636 44.8161765,35.0564205 L43.5632353,36.6947159 C42.2794118,36.7774432 41.2867647,36.5203977 40.6301471,35.9125 Z M43.8183824,37.5626136 L46.5676471,39.5761364 C46.3242647,40.1035227 46.2411765,40.6914773 46.3323529,41.2794318 C46.4544118,42.063125 46.8735294,42.7515341 47.5110294,43.2183523 C48.0198529,43.5913636 48.6213235,43.7878409 49.2492647,43.7878409 C49.9941176,43.7878409 50.7058824,43.4990341 51.2463235,43.0026705 L53.8279412,44.8935795 C52.0588235,47.9389773 50.6338235,51.3426136 51.7661765,53.4994318 C52.3301471,54.5741477 53.1022059,55.4427841 54.0338235,56.1090341 C53.6051471,56.8786932 52.9080882,57.2147727 51.9,57.1364773 C47.6919118,56.7930114 40.1661765,49.3438636 38.7588235,44.1815341 L43.8183824,37.5626136 Z M38.2147059,44.8913636 C40.0338235,50.3314205 47.4610294,57.5072727 51.8411765,57.8640341 C51.9573529,57.8728977 52.0713235,57.8780682 52.1823529,57.8780682 C53.2860294,57.8780682 54.1272059,57.4097727 54.6463235,56.5101136 C55.3051471,56.8897727 56.0308824,57.1778409 56.8198529,57.3639773 C56.4080882,57.9378977 56.0691176,58.7954545 55.9279412,59.694375 C55.7838235,60.6102841 55.8573529,61.4360795 56.1323529,62.0927273 L55.5441176,62.0927273 C51.2338235,62.0927273 47.9279412,60.7838636 44.1360294,57.5744886 C40.7411765,54.7041477 36.1470588,50.5057386 34.8397059,49.3047159 L38.2147059,44.8913636 Z M64.8463235,64.0338636 L56.8779412,64.0338636 C51.1625,64.0338636 46.7147059,62.3726705 43.2794118,58.9564773 C42.4286765,58.11 41.7485294,57.7332955 41.075,57.7332955 C40.5632353,57.7332955 40.0647059,57.9534091 39.5242647,58.4231818 L32.1095588,51.5516477 C31.5455882,50.9828977 31.6691176,50.3949432 31.7933824,50.0943182 C32.0242647,49.5359091 32.5676471,49.1466477 33.1154412,49.1466477 C33.4264706,49.1466477 33.7176471,49.2685227 33.9808824,49.505625 C34.0375,49.5573295 39.6823529,54.7639773 43.6683824,58.1351136 C47.6051471,61.4663636 51.0463235,62.8254545 55.5455882,62.8254545 L56.7573529,62.8254545 L64.8470588,62.8254545 C65.1794118,62.8254545 65.4492647,63.0972727 65.4492647,63.4303977 C65.4485294,63.7627841 65.1786765,64.0338636 64.8463235,64.0338636 Z" id="Shape"></path>
                            <path d="M21.9102941,22.6310795 L19.4147059,22.6310795 C19.2139706,22.6310795 19.0507353,22.7950568 19.0507353,22.9967045 C19.0507353,23.1983523 19.2139706,23.3623295 19.4147059,23.3623295 L21.9102941,23.3623295 C22.1110294,23.3623295 22.2742647,23.1983523 22.2742647,22.9967045 C22.2742647,22.7950568 22.1117647,22.6310795 21.9102941,22.6310795 Z" id="Shape"></path>
                            <path d="M21.0147059,3.8025 L23.5205882,3.8025 C23.7213235,3.8025 23.8845588,3.63926136 23.8845588,3.43761364 C23.8845588,3.23596591 23.7220588,3.07198864 23.5205882,3.07198864 L21.0147059,3.07198864 C20.8139706,3.07198864 20.6507353,3.23596591 20.6507353,3.43761364 C20.6507353,3.63926136 20.8132353,3.8025 21.0147059,3.8025 Z" id="Shape"></path>
                            <path d="M23.7941176,17.7405682 L22.2882353,17.7405682 C22.0875,17.7405682 21.9242647,17.9038068 21.9242647,18.1054545 C21.9242647,18.3071023 22.0867647,18.4710795 22.2882353,18.4710795 L23.7941176,18.4710795 C23.9948529,18.4710795 24.1580882,18.3071023 24.1580882,18.1054545 C24.1580882,17.9038068 23.9955882,17.7405682 23.7941176,17.7405682 Z" id="Shape"></path>
                            <path d="M17.2411765,8.69301136 L21.9102941,8.69301136 C22.1110294,8.69301136 22.2742647,8.52903409 22.2742647,8.32738636 C22.2742647,8.12647727 22.1110294,7.9625 21.9102941,7.9625 L17.2411765,7.9625 C17.0404412,7.9625 16.8772059,8.12647727 16.8772059,8.32738636 C16.8779412,8.52903409 17.0404412,8.69301136 17.2411765,8.69301136 Z" id="Shape"></path>
                            <path d="M20.6683824,13.2171591 C20.6683824,13.0155114 20.5051471,12.8522727 20.3044118,12.8522727 L6.66323529,12.8522727 C6.4625,12.8522727 6.29926471,13.0155114 6.29926471,13.2171591 C6.29926471,13.4188068 6.4625,13.5827841 6.66323529,13.5827841 L20.3044118,13.5827841 C20.5058824,13.5827841 20.6683824,13.4188068 20.6683824,13.2171591 Z" id="Shape"></path>
                            <path d="M9.32867647,8.69301136 L15.0580882,8.69301136 C15.2588235,8.69301136 15.4220588,8.52903409 15.4220588,8.32738636 C15.4220588,8.12647727 15.2595588,7.9625 15.0580882,7.9625 L9.32867647,7.9625 C9.12794118,7.9625 8.96470588,8.12647727 8.96470588,8.32738636 C8.96470588,8.52903409 9.12794118,8.69301136 9.32867647,8.69301136 Z" id="Shape"></path>
                            <path d="M20.7183824,18.1054545 C20.7183824,17.9038068 20.5558824,17.7405682 20.3544118,17.7405682 L12.4463235,17.7405682 C12.2455882,17.7405682 12.0823529,17.9038068 12.0823529,18.1054545 C12.0823529,18.3071023 12.2448529,18.4710795 12.4463235,18.4710795 L20.3544118,18.4710795 C20.5558824,18.4710795 20.7183824,18.3071023 20.7183824,18.1054545 Z" id="Shape"></path>
                            <path d="M17.5764706,22.6310795 L15.5441176,22.6310795 C15.3433824,22.6310795 15.1801471,22.7950568 15.1801471,22.9967045 C15.1801471,23.1983523 15.3433824,23.3623295 15.5441176,23.3623295 L17.5764706,23.3623295 C17.7772059,23.3623295 17.9404412,23.1983523 17.9404412,22.9967045 C17.9404412,22.7950568 17.7772059,22.6310795 17.5764706,22.6310795 Z" id="Shape"></path>
                            <path d="M13.7051471,22.6310795 L13.4463235,22.6310795 C13.2455882,22.6310795 13.0823529,22.7950568 13.0823529,22.9967045 C13.0823529,23.1983523 13.2455882,23.3623295 13.4463235,23.3623295 L13.7051471,23.3623295 C13.9058824,23.3623295 14.0691176,23.1983523 14.0691176,22.9967045 C14.0691176,22.7950568 13.9058824,22.6310795 13.7051471,22.6310795 Z" id="Shape"></path>
                            <path d="M0.622058824,12.8515341 L0.363970588,12.8515341 C0.163235294,12.8515341 0,13.0147727 0,13.2171591 C0,13.4195455 0.163235294,13.5827841 0.363970588,13.5827841 L0.622794118,13.5827841 C0.823529412,13.5827841 0.986764706,13.4188068 0.986764706,13.2171591 C0.986764706,13.0155114 0.823529412,12.8515341 0.622058824,12.8515341 Z" id="Shape"></path>
                            <path d="M18.4963235,3.8025 L18.7544118,3.8025 C18.9551471,3.8025 19.1183824,3.63926136 19.1183824,3.43761364 C19.1183824,3.23596591 18.9558824,3.07198864 18.7544118,3.07198864 L18.4963235,3.07198864 C18.2955882,3.07198864 18.1323529,3.23596591 18.1323529,3.43761364 C18.1323529,3.63926136 18.2955882,3.8025 18.4963235,3.8025 Z" id="Shape"></path>
                            <path d="M4.25147059,12.8515341 L3.03308824,12.8515341 C2.83235294,12.8515341 2.66911765,13.0147727 2.66911765,13.2164205 C2.66911765,13.4180682 2.83235294,13.5820455 3.03308824,13.5820455 L4.25220588,13.5820455 C4.45294118,13.5820455 4.61617647,13.4180682 4.61617647,13.2164205 C4.61617647,13.0147727 4.45294118,12.8515341 4.25147059,12.8515341 Z" id="Shape"></path>
                        </g>
                    </g>
                </g>
            </g>
        </g>
    </g>
</svg>